<svg xmlns="http://www.w3.org/2000/svg" width="256" height="256" viewBox="0 0 256 256" role="img" aria-label="Agent Notifier icon">
  <!-- Bell glyph from Lucide bell-ring, ISC License: https://lucide.dev/icons/bell-ring -->
  <rect width="256" height="256" rx="48" fill="#000000"/>
  <g transform="translate(44 30) scale(7)" fill="none" stroke-linecap="round" stroke-linejoin="round">
    <path d="M10.268 21a2 2 0 0 0 3.464 0" stroke="#FFFFFF" stroke-width="2"/>
    <path d="M22 8c0-2.3-.8-4.3-2-6" stroke="#FFFFFF" stroke-width="2"/>
    <path d="M3.262 15.326A1 1 0 0 0 4 17h16a1 1 0 0 0 .74-1.673C19.41 13.956 18 12.499 18 8A6 6 0 0 0 6 8c0 4.499-1.411 5.956-2.738 7.326" stroke="#FFFFFF" stroke-width="2"/>
    <path d="M4 2C2.8 3.7 2 5.7 2 8" stroke="#FFFFFF" stroke-width="2"/>
  </g>
</svg>
